<svg id="Layer_3" enable-background="new 0 0 64 64" height="512" viewBox="0 0 64 64" width="512" xmlns="http://www.w3.org/2000/svg"><g><path d="m47 36h5v4h-5" fill="#e7e4dd"/><path d="m8 42h-3c-1.657 0-3-1.343-3-3v-6c0-1.657 1.343-3 3-3h4.277c1.067 0 2.054-.567 2.591-1.488l5.264-9.023c.537-.922 1.524-1.489 2.591-1.489h15.957c.841 0 1.643.353 2.211.973l9.057 9.88c.677.738 1.052 1.702 1.052 2.703v6.444c0 2.209-1.791 4-4 4" fill="#c66b60"/><path d="m48 33c-2.209 0-4-1.791-4-4v-3.364l2.949 3.217c.676.738 1.051 1.702 1.051 2.703z" fill="#f7d881"/><path d="m2 34h2c1.657 0 3-1.343 3-3v-1h-2c-1.657 0-3 1.343-3 3z" fill="#f7d881"/><path d="m9.277 30c1.067 0 2.054-.567 2.591-1.488l4.382-7.512h10.75v9h-17.56z" fill="#ebf7fe"/><g fill="#cbc3b6"><circle cx="14" cy="42" r="6"/><circle cx="38" cy="42" r="6"/><path d="m52 36v-1.171c0-1.051 1.078-1.816 2.036-1.386.006.003.013.006.019.009.27-1.947 1.924-3.452 3.945-3.452.047 0 .091.012.137.014.441-1.73 1.996-3.014 3.863-3.014h1v22h-1c-1.867 0-3.422-1.284-3.863-3.014-.046.002-.09.014-.137.014-2.021 0-3.675-1.505-3.945-3.452-.006.003-.013.006-.019.009-.958.429-2.036-.336-2.036-1.386v-1.171"/></g><circle cx="38" cy="42" fill="#243242" r="2"/><circle cx="14" cy="42" fill="#243242" r="2"/><g><path d="m23 32h4v2h-4z" fill="#e47c6e"/></g><g><path d="m30 32h4v2h-4z" fill="#e47c6e"/></g><path d="m30 22v7c0 .552.448 1 1 1h8.54c.806 0 1.46-.654 1.46-1.46 0-.349-.125-.686-.351-.95l-5.649-6.59h-4c-.552 0-1 .448-1 1z" fill="#ebf7fe"/><path d="m21 18v-4c0-1.105.895-2 2-2h2v6" fill="#f7d881"/><g><path d="m1.999 50.999h60v2h-60z" fill="#cbc3b6"/></g><g><path d="m4 37h4v2h-4z" fill="#e47c6e"/></g><g><path d="m21 37h10v2h-10z" fill="#e47c6e"/></g><g><path d="m44 37h2v2h-2z" fill="#e47c6e"/></g><path d="m12.751 26.999h5.248v-2h-4.082c-.581.996-.791 1.357-1.166 2z" fill="#c7e2fc"/></g></svg>